<?xml version="1.0" encoding="UTF-8"?>
<svg id="_레이어_1" data-name="레이어_1" xmlns="http://www.w3.org/2000/svg" version="1.1" viewBox="0 0 221.36 180.99">
  <!-- Generator: Adobe Illustrator 29.0.1, SVG Export Plug-In . SVG Version: 2.1.0 Build 192)  -->
  <defs>
    <style>
      .st0 {
        fill: #e71f19;
      }
    </style>
  </defs>
  <path class="st0" d="M62.52,129.13c-31.43,0-56.99-25.57-56.99-56.99S31.1,15.15,62.52,15.15s56.99,25.57,56.99,56.99-25.57,56.99-56.99,56.99ZM62.52,43.36c-15.87,0-28.78,12.91-28.78,28.78s12.91,28.78,28.78,28.78,28.78-12.91,28.78-28.78-12.91-28.78-28.78-28.78Z"/>
  <path class="st0" d="M171.36,70.95l20.84-20.84c12.97-12.97,12.97-34.01,0-46.98h0s-44.33,44.33-44.33,44.33h0l-23.49,23.49,23.49,23.49h0l20.84,20.84c12.97,12.97,34.01,12.97,46.98,0h0s-44.33-44.33-44.33-44.33Z"/>
  <path class="st0" d="M107.66,128.57h106.82c0,13.98-11.35,25.32-25.32,25.32h-81.5v-25.32h0Z" transform="translate(147.04 -72.53) rotate(45)"/>
</svg>